<?xml version="1.0" encoding="utf-8"?>
<!-- Generator: SketchAPI 2019.0.336 <https://api.sketch.io/> -->
<svg version="1.1" xmlns="http://www.w3.org/2000/svg" xmlns:xlink="http://www.w3.org/1999/xlink" xmlns:sketchjs="https://sketch.io/dtd/" viewBox="0 0 683.56 618.06" sketchjs:uid="0" sketchjs:version="2019.0.336">
<g sketchjs:uid="1" style="stroke: #000; fill-rule: evenodd; color: #000;">
	<g sketchjs:uid="2" style="fill: #1a1a1a; stroke-width: 0.125;">
		<path d="M473.868 484.216c14.102 7.049-5.443 5.778 4.715 11.776-22.231-13.53.477 14.066 12.068 12.015 19.294 6.074 41.004-3.515 59.746 5.79 4.891-7.296 31.854-30.217 9.488-18.236-5.934 6.402-42.939.683-27.902-2.003 24.594-6.717 13.585-5.247-4.955-2.047-21.456.062-18.813-8.227 1.98-6.795 13.374-3.01 41.27-30.133 8.697-11.82-18.017 8.27-40.98 11.825-10.496 1.198 44.39-13.217-27.057-4.406-19.463-5.937 20.032-5.58 41.508-6.718 58.941-19.194-13.52 2.893-26.665 10.7-40.722 6.744 7.164-2.136 44.897-9.018 23.747-6.739-7.464.02-43.874 5.062-29.35 1.26 7.536-2.26 47.021-11.97 36.727-10.191-34.587 2.122-71.277 9.923-103.405-7.486 20.556 13.004 10.547 7.552 1.88 5.122 13.46 10.285-18.357 18.42 10.868 16.184 10.47 3.162 14.824 17.02 31.646 16.392 25.284 6.123-28.194-.431-16.284 5.33 7.181 2.284 37.483 20.378 22.386 17.144-10.108-2.831-20.204-5.676-30.312-8.507z" sketchjs:uid="3" style="stroke-width: 0.1575675;"/>
		<path d="M396.296 568.57c7.676-25.889 36.127-31.146 57.306-41.927 34.921 4.525 70.397.477 104.337-7.048 12.138-9.146 24.404-16.077 37.741-4.774 22.297 13.563 49.085 10.762 74.073 13.405 24.387-1.828-13.01 1.976-21.337 3.124-21.247-1.024-21.584-1.154-.368 3.358 25.044 1.15 16.687 1.617-3.395 1.833-20.512-2.789-24.779 4.012-2.176 4.9 14.094-.618 27.642 4.268 40.98 8.233-20.692-5.405-17.292.998-18.25 1.235-21.473-8.171-1.43 4.714-24.205-3.855 6.224 7.903 1.81 3.056-4.418 2.833 18.22 14.415 7.216 15.557-5.355 1.199.32 19.128-18.116-6.023-12.1 10.33-15.62 5.035-4.638 5.133-14.449-9.918-5.26 6.851-34.058 26.542-19.13 6.445-.72-13.103 36.496-13.625 18.662-18.377-12.84 4.466-32.536 1.6-32.323 20.053-7.864 10.807-29.444 17.067-17.625-4.046-6.873 7.915-22.414 32.472-12.1 7.956 3.471-14.746-18.922 13.682-29.489 8.607-19.65 4.015 3.767-25.59-21.686-10.318-17.175 11.36-14.396 16.338-4.592-4.684 12.79-24.913-26.062 1.113-10.415-14.622-7.766-19.842-12.415 18.7-7.768 17.482-10.447-5.575-.83 16.347-21.465 19.402 15.146-19.657 7.935-15.46-7.437-2.547-19.464 16.091 22.45-24.756-2.588-5.153-22.129 15.516-9.343 4.245 3.66-7.192 21.062-17.19 4.703-7.081-9.157 1.189 12.838-13.826 17.478-19.906-.388-4.7-13.732 11.483 20.531-26.541 9.736-18.125-12.918 10.585-27.572 5.971-11.78 11.195-19.534 2.075-18.376 7.786-13.207 9.82-11.151 2.211 10.211 21.151-9.994 1.531-6.335 15.8-1.405 9.298-4.321 1.576-8.334 6.403-20.246 15.913-6.32 2.915l1.343-1.335zM403.385 341.282c6.9-9.293 30.408-26.335 4.996-20.552 18.428-3.988.358-5.896.058-7.645 13.626-7.397 10.276-4.645 19.52-3.477-10.112-9.664-.874-18.335-20.847-23.557-12.645.172-28.81-2.956-38.245 7.369-15.544 9.021 4.622-20.478 15.748-17.13 12.333-7.277 28.644.756 39.428 6.272 4.645 14.255 14.132 23.618 27.615 29.67 10.188 8.472 25.774 18.597 16.767 33.29-9.507 12.97 34.389 18.794 16.524 24.085-9.97.533-38.594 17.775-25.669-2.233-2.433-10.064-28.22-9.991-19.937-27.91-4.688-17.512 32.785 8.678 13.648-12.614 1.888-20.38-20.216 3.28-30.216 4.724-6.463 3.24-12.927 6.468-19.39 9.708zM328.447 213.712c16.334-9.299 23.041-7.906 23.999 10.335 17.622 19.91 10.62 2.344 5.211-12.798-1.298-15.251 22.52-7.166 32.05-5.283 17.176 2.167 31.945 13.152 44.447 24.634-5.203 10.347 10.124 39.258 14.42 19.205 2.872-15.428 24.225-10.142 34.969-18.378 13.105-1.073 21.42 15.488 31.126 18.749 16.77 7.675 22.736-19.078 34.023-.268 1.34-2.977 19.9-7.858 23.905-.888-23.814-14.982 20.974 7.269-7.41-7.271-13.838-9.263-30.313-9.328-44.772-1.538.268-12.08 36.13-6.856 22.865-13.263-21.875-11.303-6.564-6.883.994-7.604-6.788-2.675-40.211-17.805-20.682-10.419 18.877 9.637-12.185-17.237 15.85-7.98 15.02 8.367 12.326 8.917 24.266 7.792 9.668-8.458 4.446-11.928-11.344-20.499-14.054-8.087-31.326 3.558-44.485-.582-4.05-16.416-28.703-3.873-28.678-21.166-17.735-11.137 16.717-24.53-5.377-31.134-13.387-9.519-31.984-1.428-47.622-3.642-21.331-.16-42.718-.797-62.958 7.058 16.534 5.972 33.08 11.93 49.615 17.902-19.582-3.643-39.164-7.287-58.747-10.943-1.077 15.655.595 29.038 19.492 28.267 15.297 3.991 29.285 11.83 44.017 17.462-24.647-3.448-49.243-7.278-73.994-9.974 6.367 11.14 35.965 11.595 10.656 19.406-8.608 4.273-17.216 8.546-25.836 12.82zM75.19 202.438c-27.16 2.939 1.571 1.075 10.295 11.345-4.49 2.9-40.798 1.987-14.994 3.959 5.818 3.697 36.996-.596 16.492 4.711-26.005 10.95.608.619 5.554 9.285-.355 11.504-19.845 21.42 3.063 13.004 12.77-7.14 26.367 12.825 3.221 5.378-7.626-3.936-39.88 11.844-24.394 8.472 15.308-3.183 30.004 3.474 6.39 2.563 1.738 9.476-8.35 4.951-24.064 7.327-10.092.995 25.925 2.684 8.7 7.101 11.543-.607 39.212 4.871 12.587 6.475 6.929 8.654 34.71-4.366 23.75 5.615 14.319 9.08 2.82 11.782-15.071 13.879-14.243 1.663-27.775 4.784-37.198 16.498-14.393 15.2-34.849 22.45-49.45 37.145 13.359-.66 7.66-7.067 23.907-4.614 8.172 9.547 6.095-3.457 12.405-13.482 5.552 11.04 5.395-2.566 9.758 2.89 17.098-19.742-10.01 25.14 8.788 2.335 10.574-16.853 4.933 16.207 10.296-9.105 11.97-1.468 10.525-3.725 5.696 14.492-18.46 16.583.976-.138 1.903 5.108 2.237-12.116 19.256 4.27 9.974-10.41 4.757-6.239 13.26 5.536 10.608-11.36 11.687 6.027-.442-12.918 15.534-9.374-10.38-5.504 17.123-8.212-.293-10.756 3.658-.876 25.582-4.505 35.45-10.425-25.226 1.566-14.937-2.284 3.197-7.314 8.631-4.11 38.229-5.449 18.332 5.036-5.62 5.182-29.335 6.854-10.172 9.678-14.615 8.722-25.522-4.504-28.348 7.864 30.486 3.709-13.883 4.154-13.99 7.243 10.61-1.394-15.077 12.377-1.195 10.206-18.253 19.058 9.526-.555 18.636-4.481 9.747-4.043-33.411 24.404-9.799 14.554 19.717-6.558 34.72-29.047 56.806-27.356-12.29 6.376-23.808 12.148-35.285 20.557-6.522 10.86 17.874-7.919 23.725-11.259 7.485 4.488-26.308 21.894 1.743 13.91 10.094-2.751 23.015 12.544 11.752-7.063-3.974-5.696 18.66-5.708 19.059-21.484 17.198-15.782-.066 20.429 14.049-4.113 9.515 1.845-9.545 22.319-13.028 30.51-15.367 17.965 12.263-3.192 16.28-10.95 6.064-14.683 22.738-18.825 12.349-5.622-15.778 12.686-15.618 12.423 2.961 4.864 2.139 6.42-11.374 20.957 9.87 8.416 6.746-4.748-1.448-12.842 19.77-7.686 22.17.638-8.536-12.302-18.18-9.82-15.409-13.698 1.471-12.421 12.962-7.897 8.583-24.14 11.644 6.535 16.76 16.87-.118 12.26-4.974 13.553 5.738 18.733-10.564 9.463 17.838 16.954 22.792 27.325 8.774 16.418 24.122 5.312 37.555 2.236-2.081 20.316-8.61 7.608 2.783 20.146 2.11 8.164 13.956-19.101 27.687-16.892 13.538-15.335 16.2 18.8 20.113-6.09 14.502 14.348 13.816-10.364 12.656-20.66-5.715-6.054-20.244 5.012-25.729-7.358-9.514-17.736-17.947-10.707-12.22-8.23-5.639.498-12.571-3.444-27.005-5.975 8.05-4.516-14.308-16.66 3.24-9.843-7.081-19.393-42.675-60.935-33.903-69.778 17.956-4.06-16.504-4.496-23.007-7.253-11.631-6.524-28.83-1.881-34.451-16.997-17.254 1.59-14.595 1.484-6.814 6.269-18.045 9.407-2.683 23.563-9.971 21.171-15.318 8.603-23.179-2-20.42 7.437-16.104 9.334-13.666-7.165-27.713-11.362-24.823-3.424 10.748 2.171 11.458-2.156 8.443 1.283 30.026-.152 27.578-14.421-4.16-11.205-27.197-18.721-20.035-2.82-5.635-7.384-36.23-6.64-24.775-14.213-9.945-7.022-20.3 16.851-32.24 3.868-13.047-9.515-30.085-6.715-44.756-4.835-10.04 1.825-17.117-7.387-25.722-11.021zm50.61 58.598c8.756.24 45.361-1.127 20 1.078-27.113 2.469-8.404 1.722 8.028 1.12 7.89 2.719 44.492-8.057 24.518-.978-18.536 6.067 12.412 3.114-15.202 5.261-22.74 2.519 19.34-4.93-13.191-1.27-14.854 1.385-29.815-.885-44.3 3.724 23.132-5.285 9.911-5.038 2.85-5.044 5.765-1.301 11.532-2.59 17.297-3.89zM281.19 278.24c-2.562 11.746 20.007 32.175 14.28 30.316-9.613.384 20.94 20.824-3.695 8.243 17.542 20.825 2.733 2.453 2.023 6.982 3.003 7.893 18.124 37.335 3.765 17.495-4.374-15.36-15.49-30.87-13.494-45.763l-2.879-17.273zm53.016 57.296c18.772 7.788 37.378 18.933 58.079 19.512-13.866 2.435-26.625-2.565-39.446-7.156 12.847 4.994 23.69 18.199 38.06 16.957-13.263 7.537-23.99-9.818-38.19-9.446-22.26-9.826-14.787-7.7-3.858-3.885-13.33-9.409 17.279 9.146-5.323-6.444-23.514-8.067 20.415 6.42-10.51-6.368 8 2.448 25.819 13.137 1.188-3.17zM204.212 466.911c-13.425 2.811-26.12 7.155-34.822 14.529-26.03 14.74 14.983 10.58-16.356 21.084 20.398.586 21.27-10.345 13.65 2.316 12.656 3.187 19.926-25.316 17.309-5.294-14.803 8.153 21.405 12.066 21.98 6.813-6.417-7.777 18.809-2.18 4.387-15.448 14.208-8.772 35.42-2.946 16.395-20.86-4.923-6.116-15.517-1.692-22.543-3.14zm16.938 8.157c-11.61 4.123-3.55 13.69-24.434 9.839-26.852.014 25.062 10.179 2.735 5.27-7.845-1.207-40.404.825-25.778.224 10.833-.866 12.395-10.868 30.345-7.07 5.533-.377 9.182-7.947 17.132-8.263z" sketchjs:uid="4" style="stroke-width: 0.1575675;"/>
		<path d="M68.13 389.659c16.41-10.504 35.69-8.041 54.13-7.053 22.94-15.858-17.307-3.233 8.607-13.633 17.92-7.391 19.95-13.81-.31-6.068-18.29 6.366 16.299-7.074 21.277-13.01-6.239-.779-37.524-.95-30.922-2.204 12.549-5.47 26.462-10.738 38.395-1.442 10.898 13.668 27.78-7.867 31.05.451 17.133-3.286 10.538-6.303 22.218.61 26.324 5.185-14.69-3.993-11.37 12.279 1.386 11.873-24.617-4.763-28.695 12.156-.21 15.562-11.02 16.602-24.584 21.393-12.92.631-28.6-6.014-38.13 8.385-21.811 17.124 5.139-.226-9.192-4.91-16.856 20.359-.963-7.012-19.83 10.531 13.7-16.773-18.25-2.755-11.884-7.126 1.805-7.175 38.03-13.734 16.603-13.017-5.768 1.062-11.526 2.072-17.362 2.658zM232.493 65.695c2.73-17.059-19.78-17.292-3.763-20.846-11.75-11.98 17.847-8.746 9.452-11.654 12.074-9.167 15.874 5.712 31.011-.559 7.005-7.633 39.161-15.414 22.274-1.3-2.168 17.95 2.825-.264 13.727-7.602-5.003-2.397-19.045-13.083-.104-7.99C315.288 32.113 322.17-18 320.097 7.42c-5.84 15.617 17.753 1.69.537 23.15 15.995-5.09 33.894-10.436 50.756-15.207-20.808 16.804-6.384 8.262 5.943 15.193 12.218 22.532-6.471-11.987-17.972 2.218-17.995 16.361 12.214 4.773 16.294 8.553 7.41 9.864 26.18 6.294 37.896 4.626 12.372-14.605 18.188 8.34 32.194-5.401-14.004 6.21-7.582 25.983 6.084 28.752-16.394-2.368-1.81 7.883-22.144 3.34-25.137-9.365-1.48 3.353 10.009 6.842-6.48-.99-37.813-7.689-28.797 2.209 6.793 6.326 38.824 3.128 31.226 5.606-2.016 4.448-15.686 6.972-29.932 3.62-19.714-1.146 17.665 2.099 22.142 9.948 8.425 7.549-20.924 10.816-29.342 13.498-17.1-1.553-26.733 12.827-38.499 22.657-20.502 3.93-11.98-23.137-16.353-26.572-6.381 17.445-22.633 6.781-36.111 7.752-.122-.725 28.776-1.539-.212-3.132-22.231-1.606-16.17.763.531 8.164 15.095 6.366-21.189 12.803-26.522 3.605-15.646-9.476-26.455-14.789-9.525 3.953 5.813 17.933 24.34 5.375 37.14 8.83 26.381 7.291-3.557 10.015-8.517 18.818 10.58 18.224-3.651 19.47-17.961 23.65-12.558 10.688-24.927 21.162-9.335.593-11.547-11.568-28.122 13.623-9.027-7.093 1.414-31.212-19.957 30.193-14.13-1.527-.084-14.444-11.978 16.828-19.166 20.581-26.922 17.008 14.623-9.19-1.799-12.402-10.95 16.699-2.69-25.432-11.922-.569-.486 14.203-6.08-29.081-6.876-2.266 3.408 2.941-20.18-11.651-15.521 12.355-7.555 6.328 3.549-8.158-5.964-1.82 10.62-23.877-10.093.175-10.769-11.845-21.914 9.742-7.753.834-9.92-5.242-22.25.075-3.751 24.843-13.353 17.85-.137 18.904 1.616-2.604-12.082-.117 8.937 15.612-15.11 12.682-6.317-.42 18.25-7.374-.98-14.614-4.454-3.101-5.028-3.798-25.254-2.07-10.166 11.559-14.406-6.878-25.624-2.729-9.267-18.029 8.972-15.437-18.477 3.612-23.292 9.728 19.058-19.702 5.975-5.154-7.526 3.018-26.664 8.528 14.657-13.234-12.18-.868 15.84-10.518-5.834-2.358 3.423-8.933-.263-.766 2.408-15.184 23.075-7.176 17.066 6.178 24.813-20.384 6.677-19.156-13.064.73 18.664-12.187 20.916-22.069 13.546-10.044 13.046-24.272-5.243-24.853-25.948 5.49 23.208-6.287 1.75-14.99 15.403-11.046-26.612-25.826-4.61-17.692 5.046-18.778 6.035 19.244 18.702 16.026 16.907-1.87 31.994-11.721 47.91-17.476 18.85-17.797-29.245-17.351-1.699-18.17 10.547 2.78 11.042 26.273 28.152 22.81 7.173-3.992 15.028-6.399 17.544-15.104zM202.697 462.751c22.216 3.956 20.577-49.86 29.054-18.835 12.1 8.957 27.969-9.861 19.288 6.58 16.458.798 24.753-1.447 3.536 5.345 22.514 6.451 7.865 2.721 1.487 4.529 17.367 5.944 24.508 14.761 2.271 4.529 3.337 8.97-4.56 21.055-15.894 1.92-6.549-13.415-26.339-1.648-38.635-4.138l-1.107.07zM219.348 504.537c13.547 3.686 25.402 9.967 33.9 21.452 8.914-1.249 35.108 15.603 26.369 14.239-8.014-4.467-12.506 7.123-21.565-8.81 5.882 15.63 6.448 10.832-6.064 20.052 4.991 2.019-10.428-36.687-7.829-16.656 10.34 19.982-1.746 19.222-5.915 1.728 6.68-28.25-23.602 16.38-11.457-6.18 13.482-21.383-24.845-4.573-8.675-23.208l.991-2.097.245-.52zM327.673 477.556c-5.446-14.925 16.7-19.642 27.624-21.852 5.806-2.453-25.848-11.202.834-15.298 2.107-5.388 17.554 16.656 27.502 20.545 19.78 7.749 22.787 10.35-.508 8.306-13.585 3.276-25.566 23.236-5.062 17.929 20.016-13.575-3.368 21.737 21.34 13.22 35.19-4.36-11.661 3.734-5.478 5.034 29.586 2.262-19.3 3.576 3.674 13.281-36.755-15.486 21.522 25.826-14.295 6.012 16.763 18.12-13.188 5.347-18.043-3.868-21.43-18.418 7.673 11.815 5.738 14.565-11.994-.122.55 2.29-12.346-15.597-15.804-14.949 28.864-26.579-10.066-21.25-18.11 4.802 9.51-20.877-15.8-3.366.968-8.006 16.499-16.837-5.114-17.661zM426.18 285.975c19.21 3.162 38.437 6.184 55.271 16.28 18.84.71-13.447 14.786 14.822 14.796 15.905-.354 27.452 13.79 41.004 20.546-9.418-11.653-41.518-36.782-4.655-20.987 19.378 8.393 49.354 22.352 12.905 3.322-37.64-11.526-3.94-12.91 13.772-16.613 12.158-6.052 27.658 17.618 32.453 15.368-16.591-20.582 14.666 5.194 21.699 7.134 7.97-1.997-20.487-26.031-34.41-31.461-15.305-7.478-34.409-.428-51.31-2.815-16.937-.4-30.755-14.111-48.309-14.259-16.023-10.046-24.475 5.623-37.436 9.163l-15.806-.474z" sketchjs:uid="5" style="stroke-width: 0.1575675;"/>
	</g>
	<g sketchjs:uid="6" style="stroke-width: 0.125;">
		<path d="M336.325 585.075c24.995.571 66.719-.16 22.826 2.616 25.285-2.225 51.384-2.76 76.73 2.336 47.692-7.566-42.934 11.71.485 7.636-23.784 2.977-47.565 6.598-71.528 3.195 24.899 7.6-8.528 6.112-17.623 1.739-19.992-8.316-57.783 10.581-50.179-1.737-15.178 1.647-30.37 3.294-45.56 4.955 6.404-2.782 42.082-12.578 26.69-10.122-17.939 2.934-31.39 4.926-5.971-1.136 21.676-6.935 43.609-11.613 66.427-8.718l-2.206-.732-.09-.032zM183.945 586.639c39.76-6.392 79.823-1.26 119.825-2.652-19.07 3.826-38.193 7.404-57.642 8.627 21.754-6.89-33.11-1.861-48.16-.172 4.71-.01 23.692-5.826-3.485-4.162 1.834-3.93-24.196 5.037-10.538-1.641zM441.128 601.44c18.995.182 78.083 7.542 32.571-2.234 7.234-2.052 27.484-3.2 39.703-4.911 23.111 2.535 88.765.534 87.788 5.232-7.775 1.681-44.056 5.566-29.735 5.528 15.34.49 30.556-1.55 45.805-2.684-16.718 11.003-75.657 3.002-47.5 11.595-43.531 10.838-88.485-4.48-132.58 1.859-10.671.046-47.149-3.534-18.475-4.7 16.247-2.118 32.644-2.49 48.96-3.717-8.841-1.99-17.683-3.98-26.537-5.968z" sketchjs:uid="7" style="stroke-width: 0.1575675;"/>
	</g>
	<path d="M336.994 112.07c-4 17.24-12.01 43.31-34.15 32.64-8.6 3.03 7.99 38 2.46 40.95-10.09-20.34-26.57-34.28-46.23-45.03-1.94 19.39 54.55 41.23 46.95 76.36.53 51.02 3.91 101.89 5.91 152.81-26.95-29.18-36.55-69.92-44.51-107.85 12.05.73 48.6 13.46 22.34-4.93-29.71-12.75-48.27-58.61-37.08-85.07 23.32 1.66 40.82-8.85 6.8-9.99-43.19 24.32 3.59-25.82-8.54-25.77-17.61 27.96-18.37-1.84-35.61-10.88-31.01-7.03-10.01 6.93 7.42 15 14.37 27.63-7.04-11.53-21.21-6.96-27.46-.01-35.45 5.9-3.54 6.25 29.98 5.32 6.26 13.81-10.36 1.79-28.53-4.45-57.8-4.6-86.61-3.15 30.18 8.21 62.66.59 92.08 9.49 14.16 13.4 43.23 14.76 47.59 35.51-16.85-15.84-73.83-43.51-79.76-33.26 51.27 9.18 93.19 44.12 97.65 98.48-23.03-13.36-49.12-21.73-76.13-18.45-23.48-14.61-52.7-4.52-78.74-11.53-16.79-.6 27.55 9.78 38.05 7.78 20.08 1.16 37.36 14.31 58.38 11.51 30.53-3.37 20.12 13.85-3.24 12.92-37.58 2.8-76.08-2.82-113.02 4.73 43.89-4.27 89.16 4.79 132.18-4.75 21.01-11.24 29.17-1.03 24.93 17.49 4.18-20.41 18.01-4.71 18.96 16.88-26.86-10.1-55.37 1.54-82.94-5.23-29.09.81-56.74 12.76-80.11 29.65 32.04-6.47 61.86-21.84 95.38-19.95 21.72-1.9-34.01 25.73 5.19 6.17 21.19-14.33 48.51-4.11 64.81 12.11 14.48 17.68 10.36 44.16 28.76 60.14 9.64 20.33 15.08 41.52 16.19 64.06-17.97-4.6-23.86-27.97-37.11-39.04-6.97-20.04-19.58-46.48-44.96-41.65-21.04 1.32-44.32-.9-64.04 4.48-13.4 12.61 29.38-4.37 41.01-.18 2.12 7.81 7.68 4.47 30.99.82 22.19 1.21 18.24 32.16 32.89 44.36 11.14 17.3-41.82-9.16-3.13 11.06 13.64 16.05 31.11 29.5 39.83 49.14-19.11-25.1-52.11-35.07-76.24-55.06-20.43-18.94-31.36-3.15-6.69 10.24 26.86 16.85 57.82 30.07 78.43 54.65-20.29-14.08-26.08 8.83-45-2.83-29.43-7.12-29.03-.33-.23 5.84 16.76 11.78 28.35-8.58 43.2 5.39 19.48 23.36-6.39-.31-20.2-1.69-26.02-5.86-74.95 25.92-66.93 35.72 27.92-54.33 105.43-21.21 93.25 26.87-4.08 19.78-4.82 44.5-1.67 54.34 13.16-7.35 80.49 9.62 40.59-9.61 17.24-34.97 20.67-94.69 71.74-88.18 29.01 6.31 28.9-8.84.77-6.44-36.37.29 2.06-5.86 5.09-26.89 6.57-15.46 3.57-43.87 27.57-37.58 10.23 11.45 52.53 9.4 20.68 2.85-31.48-4.39-15.64-21.59 5.69-6.31-2.06-7.91-27.47-18.72-38.44-4.14-17.86-27.86-21.53 22.96-24.6 37.45-9.48 21.28-64.44 65.96-36.5 22.22 16.73-31.48 23.35-66.75 35.2-100.14 16.67 4.68-4.48-14.96 24.63-24.06 7.51-11.76 50.18-2.52 32.29-18.79-21.95 1.89-43.13 5.71-59.33 21.9-23.94 25.93-18.43 65.72-37.64 94.93-11.01 18.92-15.76 43.03-31.68 57.96-14.84-36.65 12.02-72.79 22.25-108.23 11.2-27.59 13.69-61.09 33.07-83.88 15.94-10.2 22.93-21.32 44.33-20.88 17.82-2.41-40.3 6.3-16.04-18.27-13.5 5.02-37.91 33.29-23.76 2.17 20.61-19.34-5.44-39.08-12.58-13.24-9.19 43.24-25.04 84.88-41.62 125.73-12.38 15.72-6.24 38.16-18.41 54.99 9.47-14.89 9.42-59.87 6.59-86.41-5.65-65.49 9.06-129.97 10.55-195.24 21.1-5.6 12.58-30.48 37.4-34.62 5.09-31.87-26.93 17.23-23.43.47 14.23-20.43 1.98-25.01-18.06-20.14zm24.33 390.14c-25.42-1.63-14.86 28.25-17.71 43.33-.98 12.73-34.22 40.45-12.3 16.64 11.1-8.8 9.83-25.78 11.66-39.11.08-14.14 1.94-21.71 18.35-20.86z" sketchjs:uid="8" style="fill: #520; stroke-width: 0.158;"/>
	<g sketchjs:uid="9" style="fill: #008000; stroke-width: 0.125;">
		<path d="M388.583 90.907c8.625-11.751 34.55 11.989 25.532 9.227-8.47-5.486-16.408-7.356-25.532-9.227zM413.458 135.896c21.094-10.713 9.672 9.49 3.022 18.931 2.66 2.105 15.336-19.239 23.325-22.513.205 20.904.364 8.705 13.723 1.68 9.507 6.696 23.667 31.348 11.459 7.595-12.75-19.361-.618-2.373 12.716 2.337 16.208 3.214 45.102 10.888 47.289 14.69 11.664-10.834 22.152 8.103 34.364 9.474-20.217-10.853 14.582-6.068 23.18-11.894 8.765-3.197 34.959-24.098 14.162-12.078-27.235 5.52-57.619 15.156-83.508.116 25.962-3.696-7.801-6.489-19.626-6.33-16.752-4.822-24.026-13.946-3.718-19.936 30.467-12.496-34.763 3.523-26.528-2.242 20.482-12.606-7.812-5.263-18.473-4.674 3.042-9.578-17.847-5.358-27.78 1.5-11.557 6.773-26.06-.225-35.832 10.968-22.857 6.833 15.895 12.202 17.11 14.84-22.964-5.79 14.651-17.503 15.115-2.464zM96.358 496.73c3.44-28.146 28.407-8.336 41.078-23.01 2.415.238-16.826 4.139-22.832-1.126-17.723 6.33 15.29-17.581-8.403-6.804 11.652-11.224 27.25-7.088 38.715 2.01 25.622 3.285 4.16-13.83 22.847-8.588 12.23 9.2 23.377-2.016 36.517-1.765 16.184 1.649 34.158.266 48.383 9.252-17.487 11.633-8.153 10.434-23.936 7.142-20.531-9.431-26.441 13.642-46.223 7.056-10.72-5.9-29.79 1.085-38.615 8.302-7.425 5.992-9.054 42.763-16.19 22.489-6.921-9.324-21.608-9.477-31.341-14.959zM154.413 536.73c9.513-10.306 12.472-30.311 29.417-29.608 14.16 2.397 25.366-6.5 37.198-4.764 27.6 2.01-17.609 16.074 6.132 19.176 4.47 2.545-22.76 4.78-26.042 17.33 21.987-7.208 11.258 15.161-3.278 8.04.888-7.888-11.152-12.112-22.084-6.05 2.839-16.537-2.789-1.148-17.733-4.354l-2.315.147-1.295.082zM243.823 437.907c-9.998 22.55-17.779-9.846-25.868 3.98-15.414 17.224-12.338 11.168-2.634-5.68-6.122 2.852-33.22 25.037-24.641 11.76 3.348-14.89 24.763-14.597 25.717-30.004-9.89-6.546-22.892 19.201-26.415 16.836 16.524-16.056 8.406-18.18-7.318-5.446-14.734-1.097-27.107 5.954-41.033 7.635 4.334-9.32 3.975-8.008-13.53-7.994 12.34-7.77 26.433-4.421 38.61-10.374 8.661-10.781 27.864-.786 32.962-17.15 5.984-14.566 23.106-1.924 34.545-1.805 12.735 2.437 29.087-2.013 33.948 14.262 3.04 22.202-1.756 12.313-11.192.181-10.493-8.692-24.483 5.093-17.618 16.125l4.467 7.674zM370.677 556.797c12.238-19.308 35.26-25.116 51.023-40.24-12.703 2.652-39.365 2.276-13.628-3.162 19.905-3.008 39.636-3.77 59.056 2.486 14.068 2.541 36.953 10.459 12.073-1.412-21.034-6.822-43.058-7.949-64.968-5.09 10.432-8.962 11.03-29.576 28.827-22.017 22.098 5.48 40.853 19.368 63.475 22.54 9.553 5.431 32.338-4.91 33.28 3.544-17.44 5.428-29.88 9.427-4.797 2.629 8.793.628 30.834-20.439 21.72-20.352-17.203 1.397-29.214-1.364-8.462-12.712 5.868-4.453-29.806 21.712-16.45 1.311.084-10.388 32.052-25.303 17.01-20.924-10.41 4.741-37.659 11.64-14.71-.897 13.254-5.3 34.583-7.162 11.728-18.188-10.523-12.733-23.508-12.148-35.68-1.951-.382 9.687 33.901 19.28 11.548 19.336-11.397-2.256-32.569 10.621-21.21-7.405 5.418-3.792-16.869 13.413-25.908 7.116-18.57 15.264-11.695-4.751.549-13.222 12.215-15.087 34.096-9.455 48.3-21.852 21.77-6.84 14.544-6.469-4.405-2.94-15.809 5.248-29.775 15.04-46.676 17.214 18.442-14.687.115-16.882-13.166-8.826-9.097-6.394 30.557-16.834 9.53-18.377 27.425-5.507-12.657-12.938 11.487-15.407 22.598 1.203 45.681 14.034 69 7.108-17.145 16.613-9.32 13.729 6.757 3.575 14.895-9.283 36.957-13.123 52.025-2.208-19.93-4.544-2.79 10.939-16.516 5.243 22.567 16.236-29.418-11.531-6.377 3.411 16.063 9.488-9.132 6.353-5.29 12.147-15.72 4.876 17.465 10.093 24.103 11.187 25.85-8.426-21.335 1.773-9.502-13.77 5.93-11.808 21.706 10.834 33.99 2.803 20.924 4.683 9.156 10.104 1.415 9.333 7.747 3.84 39.165 18.44 14.91 11.405-25.719-6.183 8.742 4.004 10.758 15.459-.693 3.012-31.771-19.15-8.916.415 20.87 18.138-3.246 1.406-13.397-4.491 2.427 4.19 29.71 31.835 10.308 14.324-9.175-11.807-22.752-13.774-36.148-17.671 13.066 7.24 26.777 13.518 37.873 23.75-27.23-8.133 4.657 14.647-19.006.451-13.532-4.255-22.943-20.355-38.164-16.596 5.855 4.074 39.793 21.747 19.843 13.315-13.352-10.949-33.012-2.904-9.99 5.586 26.064 12.818-27.96-9.49-5.55 5.279 6.543 6.556 32.854 24.663 9.288 21.526-9.173-1.83-18.823-31.454-18.79-7.092-23.98 4.682 7.228 12.98 15.69 17.924 25.787 7.48-.666 10.008-4.762 14.714 13.161 3.976-10.06 21.165-19.174 18.283-21.087-14.814 4.158 10.965 15.828 3.39 10.345-10.118 19.272 15.27 34.82 8.914 25.498 2.914 1.355 6.002-10.909 8.399-24.483 3.11-48.916 7.997-73.7 6.97 7.704-16.316 12.891-28.898-3.754-9.184-6.875 10.466-35.75 8.057-20.93-7.751 38.741 13.932-16.032-24.71-11.39 11.574-19.717-1.602-16.639-8.226-8.886-13.039-12.464-3.73-31.716 12.323-14.005-5.918 26.067-6.797 2.473-11.373-2.747-4.271 15.575-15.87-1.54-18.078-14.487-10.119-15.321-1.994-24.695 23.61-28.588.327-17.624 1.12-11.276-8.504 5.123-14.194 3.945-2.714-24.728 4.817-31.839 11.18-10.995 11.436-27.382 11.947-41.682 16.683l2.305.308.917.119zM344.28 272.033c10.134 7.818 12.585 27.114 28.158 15.375 11.566-6.217 26.58-1.702 39.097-4.695 15.811 2.936 13.065 24.52 28.247 29.276 9.998 8.85 25.692-5.346 37.122 6.356 12.124 11.91 32.37 3.93 11.886-6.742-6.859-8.356-40.089-8.126-24.557-19.116 9.977-1.215 37.968 7.148 20.388-7.523-12.108-9.272-25.862 6.254-39.808 1.052-26.534.462 6.412-3.451 16.24-5.213 14.068-4.607 28.97-1.07 39.999 8.7 10.434-8.33 36.59-3.4 15.812 7.924 17.212 7.293 34.3-.273 51.425-3.9 14.815 11.513 32.493 18.586 49.51 26.195-19.71-16.203-6.269-10.401 9.375-3.147-12.54-7.312-24.939-14.785-32.993-27.245 20.166-15.39 9.102-11.2-7.585-3.484-13.192 1.71-34.294-8.96-14.284-20.046-5.13-8.377-20.18-17.828-31.486-22.402-6.705-4.55-38.532 7.426-26.88-3.799 17.877-5.102 23.225-8.397 1.247-8.403-13.398 7.205-27.579 4.671-40.002-1.006-12.223 2.835-17.4 20.545-34.099 18.751-26.282 1.822 7.66-13.812-3.076-21.365-18.416.185-26.623.037-13.717-8.147-3.354-3.285 25.112-1.558 34.414-2.667 21.485 11.518 11.69-3.484-3.41-6.364-15.4-.234-27.461 2.365-39.903-4.79-25.013 1.527 1.483-14.038-21.46-10.344-16.273-1.656-18.534 16.221-32.804 20.842-24.684-.25-38.118 22.278-54.94 36.824-15.254 6.628-34.521-3.793-50.192 5.616-15.593 5.058-30.328 12.297-45.362 18.798 8.842-.184 39.295-8.131 33.95-3.207-9.319 6.403-38.12 19.866-11.734 13.314 28.415-5.23-2.935 2.119-5.254 15.112 5.334-3.914 22.473-11.672 35.166-8.121-8.958 25.2 7.729 6.14 18.349-2.442 13.544-4.903 35.046-13.583 12.111 1.365-6.661 14.228 19.318 6.843 22.634-6.77-12.906 13.768-10.381 26.061 8.309 18.053 1.215-19.226 28.387-10.444 24.206-12.035-6.187-6.516-6.444-12.158-4.1-20.58z" sketchjs:uid="10" style="stroke-width: 0.1575675;"/>
		<path d="M37.48 413.382c21.273-11.886 31.854 9.52 53.01 6.117 13.198.386 23.295-11.85 34.27-18.043-20.743 8.303-21.874-.15-2.888-7.47 13.418-6.095 27.785-.44 40.764-1.126 18.3-10.952 7.895-17.074-7.913-11.812 6.967-11.407 21.827-16.886 33.685-15.126 12.886-9.9 19.099-2.97 33.655 1.284 19.25-5.758-13.633 18.423 15.322 14.928 5.733-13.349 22.332-13.115 28.684-25.847 7.88-13.157 27.483-10.954 35.124 1.544 19.953 8.496-11.89 11.657-20.65 11.948-14.827-3.15-34.663 8.683-9.412 9.516 20.07-.607 39.016-10.551 59.25-7.177 17.953-2.315 64.638-16.802 53.036 12.709-27.721-13.067-17.109 2.274 2.01 2.613 5.603 10.253-36.05-5.2-11.523 10.862 16.566 18.399-9.55 1.188-16.094-6.391-10.333-15.713-29.062-5.946-41.514 1.842-21.592.501-45.144 5.548-63.72-8.707.247 15.811-14.176-7.814-1.092 12.827-19.939 9.225-7.119-18.595-29.028-10.167-20.813-9.893-18.102-9.573-10.606 4.83-15.468 2.056-17.566 12.774-32.455 15.994-11.425 9.631-26.684 5.448-40.372 6.697 19.661-11.405 5.248-19.583-6.486-5.664-14.355 2.479-25.068 14.174-37.859 20.595 8.262-7.535 33.495-27.062 10.279-12.362-8.024 8.089-32.892 11.905-30.223 22.092 4.36 10.371 29.546 17.144 6.874 15.352-10.768-22.96-16.06 3.27-.664 9.035-3.977 3.802-21.855 2.122-30.692 9.542-17.297 1.706 8.607-18.192-16.69-4.635-17.752 6.862 4.764-14.083 12.174-16.133-9.546-3.726-35.516 17.515-29.143 3.128 12.793-7.988 27.302-11.234 41.041-16.642-13.331-.29-27.339-1.685-36.898 8.093-12.533 1.933 15.612-14.9 7.917-14.145 12.713-8.058 27.77 5.485 39.181-4.17-18.974-5.615-7.73-7.15-25.428-8.59-15.944 3.325-21.825 2.6-5.203-7.134l.277-.207zM13.985 354.917c5.807-13.758 22.517-34.827-5.186-21.37 13.72-5.71 25.844-13.288 32.73-26.963 12.918-21.523 5.139 19.238 14.387-.8 1.495-15.43 22.97.51 32.783-4.27 19.082-8.197 39.837-21.478 60.879-11.36-17.344 2.96-32.114 12.02-47.772 18.85-7.6 12.774-18.764 11.412-22.05 5.81-4.057 28.185-21.046-9.979-24.862 5.294-12.518 16.281-24.222 23.126-24.354 16.276a22931.612 22931.612 0 0 0-16.555 18.533zM77.517 230.305c15.99 4.97 23.82-13.74 37.462-13.332 23.74 2.685 44.05 15.806 67.75 19.263-15.34 3.665-38.3 12.855-53.142.321-.051 15.893-29.347 4.682-23.454 3.209 18.984-11.135-10.24.259-17.568 2.998-1.766-2.553 13.94-13.188-8.918-6.367-25.87 1.758-1.03 5.648-2.13-6.092zM148.72 156.234c-17.195-.473-29.922 9.935-42.75 19.946 14.797-15.39 3.241-18.748-10.277-7.873-11.245 7.89-34.669-6.512-10.393-6.122 14.907-9.296 36.43-1.95 46.162-19.733-3.133-4.98-26.423 6.176-33.748-5.939-11.222.903-41.708 4.167-37.038 5.689-8.162-7.186 6.798-17.244 21.05-11.62 23.894-4.221-20.363-5.185-5.393-12.098 22.204 2.757 14.258-2.22-2.184-9.322 1.359-1.678 25.42 4.473 31.963 13.227 12.12 15.801 18.907-10.36 32.28-11.79 23.333-4.325-3.354-16.813-14.444-10.058-26.418 7.438-.399-8.26-20.956-11.944 2.21-12.143 22.585-3.557 32.895-3.113 9.99-10.353 23.162 9.302 35.732 9.336-8.143-8.286-34.904-18.169-8.73-15.524 25.799-.503-14.302-9.417-6.972-16.108 15.037 5.863 32.76 1.735 11.244-9.7-.826-4.647 20.409 11.286 28.123 14.819 14.863 3.922 21.676-7.528 33.79-12.87-23.7-3.056 3.092-5.81 13.615-5.387 20.085-2.36 37.21 8.932 55.31 15.68-17.155-8.169-32.655-23.312-52.956-18.19-38.044-9.535 26.878-2.397.366-16.108 17.377 4.53 21.808-13.998 37.227-12.844 26.183-1.6-8.797 12.616 4.292 23.603 12.979 17.994 10.753 15.57 17.713.273 2.36-1.818-15.626-10.954 4.754-8.081-8.505-9.798-6.3-20.612 4.167-20.679 5.516-14.568 8.785 9.243 16.512 11.388-16.563 19.006 8.908-.16 13.024-5.344 15.197-5.532 24.646 9.384 18.96 16.124-25.446 4.642-9.843 3.907 6.95 3.015 8.86 11.615-4.836 22.874 9.982 3.242 9.098-2.724 18.583-3.336 7.797-10.484 4.515-10.837 39.619-9.595 34.537-6.29-16.98-3.835-30.19 13.3-6.409 4.9 23.1-12.36 1.7-.296-2.56 11.99 1.128 21.313 18.863-9.868 22.003-5.977-2.024 20.43 9.93-21.81 18.682-.169-17.053-1.217-11.795 20.695-2.798 22.14 18.263.975-13.343 4.298 2.264 7.6-13.371 3.06-24.01 5.783-37.198-1.185-9.865-1.406-30.058 27.274-23.752 13.61 11.279-17.89-14.299-16.895-25.769-16.123-4.64-19.546-10.953 4.538-20.106-16.458 2.673 10.054-10.253 28.457-21.243 14.538 12.138-6.567-17.882-15.053-17.692.855 13.988 17.18-1.572 7.06-14.4 17.482-24.684-2.852-11.15-.163-3.243 4.412-16.69 5.103-35.206-6.819-49.54 5.726-22.35 12.232 1.762 9.449 11.895 11.685 9.88 7.771 27.194-13.122 36.511-2.068 14.625 11.499 27.843-7.681 40.625-14.038 15.377-3.896 30.999 3.22 46.226 5.916-4.735 18.893 10.737 21.863 25.547 25.355 18.087 2.981 36.45-7.381 54.11-5.978 14.434 1.344 22.748 14.318 32.789 23.241-28.592-13.05-59.402-1.176-89.305-3.254-7.838 2.671-41.124-2.552-19.544-8.016-14.618-.258 9.574-8.149-15.344-9.294-18.841 8.006-40.396-10.783-56.73 4.49-5.235 15.212 21.247 5.395 28.451 11.631 7.231 12.02-12.853 25.51-23.612 14.422-10.45-.851-25.452 12.114-34.689-2.658-24.375-22.613 14.28 14.022-7.222 4.223-6.78 6.987-32.507-.32-25.127-3.253 8.894-4.14.352-6.59 14.978 1.55 13.441-4.733-12.809-25.648-21.969-17.147-10.508 13.526-26.188-8.415-35.706 6.387.073 10.681-34.46 22.994-16.471 11.708 17.925-12.28 12.402-18.307-3.74-3.792-8.152 11.848-22.398 7.701-32.516 16.428zM291.259 230.753c8.455-11.842 24.454-11.318 34.498-8.092 11.205-10.715 28.1-4.021 36.868 6.739-16.786.397-32.766 7.526-49.194 4.819-11.335 4.484-34.879 8.065-12.438-3.125 6.22-5.877-7.9-.306-9.734-.341z" sketchjs:uid="11" style="stroke-width: 0.1575675;"/>
		<path d="M205.148 170.836c1.693-14.507 49.51-6.014 26.402-2.335-11.803-3.456-31 11.065-22.76 3-6.363 2.628-15.006 9.126-3.642-.665zM344.392 153.372c12.482 7.997 23.402-8.99 35.906-12.173 25.25-4.345-10.543 19.528 2.486 13.875 11.372 1.854 13.55-4.625 29.138-4.984 17.567-7.003 31.922 13.38 49.523 13.07-5.894 9.62-38.446-7.711-24.259.279 11.34 8.31-21.921.294 3.26 7.763 17.639.104 10.753 17.164-3.477 10.085 1.628 7.526 16.425 13.785-6.041 8.683-22.47 3.588 17.533-24.406-4.172-10.976-3.436 1.974-28.042-12.554-20.188-.865-17.555 4.804-14.89 13.931-31.096 2.608-13.095-1.946-13.827 8.597-30.751 9.61-14.352 2.932 33.007 6.996 19.367 8.81-8.214-.653-35.628-5.504-28.736 7.737 16.616 3.883-4.513 21.204-14.445 20.736 1.527-1.208 9.343-21.914-13.318-11 7.921-3.953 29.073-14.77 16.767-17.992-2.732-9.805-16.888 4.358-23.071 11.407-20.616 20.623 14.215-18.789-8.65-12.877-23.284 11.635-8.435-10.111 3.9-14.95 12.131-7.074 25.584 3.666 33.264-3.87 20.507-4.461 20.287-3.74 1.076-4.931-16.02-4.426 21.279-6.62-6.147-8.274-10.604-3.684-36.826-2.51-12.662-6.256 11.135-.683 22.697.78 32.326-5.515z" sketchjs:uid="12" style="stroke-width: 0.1575675;"/>
		<path d="M440.122 153.981c6.35 2.54 32.121-4.15 16.6 7.016 9.573.97-4.356 11.746 16.739 12.957 5.171 2.475-24.453 9.158-17.823 13.902 5.287 6.472 24.995-.224 28.198 15.196 4.142-.604 13.911-5.684 13.084-2.006 22.363.094-16.62 12.159 8.376 8.17 5.787-4.144 5.973 15.877 12.805 1.94-3.366-12.417 8.751-6.581 23.933-6.195-5.355-2.173-28.68-14.824-3.868-7.597 17.452 12.266 17.622-.16-1.47-3.065-16.787-7.345 19.615 3.376 26.004-1.817 20.045-3.585-13.974-5.44-16.948-13.486-13.03.285-20.416 5.693-33.867 7.306-10.797-1.158-18.385 15.39-30.696 3.328-22.518-5.528-5.072-6.069 7.502-12.337 14.944-5.131 31.772 4.851 46.26-1.905 9.952.984 29.427-4.599 32.543.104-23.547-12.763 24.61.293 7.477-7.359-8.752-9.119-24.123-.967-35.693-1.963-12.778 3.452-25.6-9.285-37.3 2.384-30.857 2.176 14.613-5.792-2.162-7.605-12.12-.493-32.404-5.052-8.97-4.394 11.987-4.577-18.99-7.256-24.514-11.894-10.868-5.056-18.265 3.17-26.21 9.32zM140.191 174.864c10.814-7.913 21.18-16.529 33.31-22.415-7.676 11.982-21.745 15.39-33.31 22.415zM307.812 420.439c3.63-16.21 21.52-4.425 26.493 5.073 10.8 26.028-6.094-15.793 1.128-12.867 6.704 19.24 5.171-18.188-4.367-16.243-10.484-.395-24.257 5.685-30.173 14.548-1.353 5.935 2.72 6.825 6.919 9.489z" sketchjs:uid="13" style="stroke-width: 0.1575675;"/>
		<path d="M247.787 426.957c11.553-12.393 26.057 7.135 30.312-12.752 16.567 14.029 7.153-6.694 18.273-2.84 19.487-6.203-2.438-2.6-15.345-5.151-11.405 4.387-15.803.764-31.727 3.014-3.206 3.21-14.711 31.451-1.682 17.84l.17-.111zM457.111 349.147c24.624-16.003-14.92-15.359 3.801-18.292-15.454.692-2.421-16.443-25.534-6.486-9.196-1.992-39.763 17.672-28.877 8.315 16.864-16.873 42.028-20.19 64.83-22.334 12.798 6.803 24.789 15.224 38.302 20.566-15.886-10.673 21.017 5.157-6.024-9.532-3.31-11.94 24.194-.893 28.464 7.664 13.557 10.784 27.532-.65 21.023-15.824 1.335-16.353 26.686-6.394 24.427 7.15 11.432 22.275 38.396 15.47 58.404 20.249 15.027 5.903-30.685 1.117-14.079 10.204-9.825-2.95-39.86-4.136-19.033 7.98 12.215 4.39 24.342 31.027 4.698 13.494-7.047-.98 3.086 9.403-11.969-5.479-14.223-.208-1.683 5.905-19.576.032 10.88 16.17 16.425 12.786 2.828 16.063-1.643 8.542-27.861-22.013-18.966-5.072 14.904 20.854-.101 9.732-11.732.228-6.475-6.89-29.611-19.35-12.954-5.884 21.928 11.149-17.278 11.342 6.025 14.913 7.358 11.04 28.932 15.617 6.94 23.924 12.345-17.407-18.372-3.468-27.53-8.443-23.142-1.043-17.107-3.46 2.234-6.192-17.257.932-34.518-2.758-50.917-5.808-12.63.6-26.815 24.453-14.447 2.434 17.543-22.676-20.994 15.873-8.552-1.01 21.246-23.631-16.924 9.564-4.746-10.08-10.4-13.979 21.101-.079 25.163-11.894 4.74-17.429 27.757 5.284 3.867-12.485-8.774 8.805-19.99 17.943-35.397 14.021 25.89-.85 11.336-8.652-5.594-1.955 11.835.384 2.44-16.664 10.44-14.419 5.137-1.236 9.676-3.95 14.481-6.048z" sketchjs:uid="14" style="stroke-width: 0.1575675;"/>
	</g>
</g>
</svg>